<svg xmlns="http://www.w3.org/2000/svg" width="900" height="410" viewBox="0 0 900 410">
  <style>
    .title { font: 600 20px 'Segoe UI', Ubuntu, Sans-Serif; fill: #c9d1d9; }
    .stat-label { font: 400 13px 'Segoe UI', Ubuntu, Sans-Serif; fill: #8b949e; }
    .stat-value { font: 600 18px 'Segoe UI', Ubuntu, Sans-Serif; fill: #c9d1d9; }
    .stat-value-small { font: 600 14px 'Segoe UI', Ubuntu, Sans-Serif; fill: #c9d1d9; }
    .section-title { font: 600 14px 'Segoe UI', Ubuntu, Sans-Serif; fill: #8b949e; }
    .model-label { font: 400 12px 'Segoe UI', Ubuntu, Sans-Serif; fill: #8b949e; }
    .footer { font: 400 11px 'Segoe UI', Ubuntu, Sans-Serif; fill: #8b949e; }
  </style>

  <!-- Background -->
  <rect x="0.5" y="0.5" width="899" height="409" rx="4.5" fill="#0d1117" stroke="#30363d"/>

  <!-- Title -->
  <text x="25" y="35" class="title">⚡ VibeDashboard</text>

  <!-- Stats Row -->
  <g transform="translate(25, 60)">
    <g>
      <text class="stat-label">Total Tokens</text>
      <text y="22" class="stat-value">13.3B</text>
    </g>
    <g transform="translate(150, 0)">
      <text class="stat-label">Total Cost</text>
      <text y="22" class="stat-value">$8951.47</text>
    </g>
    <g transform="translate(320, 0)">
      <text class="stat-label">📅 Today</text>
      <text y="22" class="stat-value-small">609.2M / $391.42</text>
    </g>
    <g transform="translate(510, 0)">
      <text class="stat-label">📊 This Week</text>
      <text y="22" class="stat-value-small">2.5B / $1988.98</text>
    </g>
    <g transform="translate(710, 0)">
      <text class="stat-label">📈 This Month</text>
      <text y="22" class="stat-value-small">6.6B / $5443.78</text>
    </g>
  </g>
  <!-- Weekly Usage Chart -->
  <g transform="translate(25, 105)">
    <rect x="0" y="0" width="850" height="100" rx="4" fill="#161b22"/>
    <text x="45" y="15" text-anchor="end" class="model-label">978.8M</text>
    <text x="45" y="52.5" text-anchor="end" class="model-label">489.4M</text>
    <text x="45" y="90" text-anchor="end" class="model-label">0</text>
    <line x1="50" y1="5" x2="50" y2="80" stroke="#30363d" stroke-width="1"/>
    <rect x="60" y="78" width="49" height="2" rx="3" fill="#58a6ff"/>
    <text x="84.5" y="95" text-anchor="middle" class="model-label">05/31</text>
    <rect x="115" y="53.73163876577481" width="49" height="26.26836123422519" rx="3" fill="#58a6ff"/>
    <text x="139.5" y="95" text-anchor="middle" class="model-label">06/01</text>
    <rect x="170" y="58.811062530891746" width="49" height="21.18893746910825" rx="3" fill="#58a6ff"/>
    <text x="194.5" y="95" text-anchor="middle" class="model-label">06/02</text>
    <rect x="225" y="72.27546190395877" width="49" height="7.724538096041232" rx="3" fill="#58a6ff"/>
    <text x="249.5" y="95" text-anchor="middle" class="model-label">06/03</text>
    <rect x="280" y="78" width="49" height="2" rx="3" fill="#58a6ff"/>
    <text x="304.5" y="95" text-anchor="middle" class="model-label">06/04</text>
    <rect x="335" y="78" width="49" height="2" rx="3" fill="#58a6ff"/>
    <text x="359.5" y="95" text-anchor="middle" class="model-label">06/05</text>
    <rect x="390" y="78" width="49" height="2" rx="3" fill="#58a6ff"/>
    <text x="414.5" y="95" text-anchor="middle" class="model-label">06/06</text>
    <rect x="445" y="78" width="49" height="2" rx="3" fill="#58a6ff"/>
    <text x="469.5" y="95" text-anchor="middle" class="model-label">06/07</text>
    <rect x="500" y="78" width="49" height="2" rx="3" fill="#58a6ff"/>
    <text x="524.5" y="95" text-anchor="middle" class="model-label">06/08</text>
    <rect x="555" y="68.86645467217485" width="49" height="11.133545327825148" rx="3" fill="#58a6ff"/>
    <text x="579.5" y="95" text-anchor="middle" class="model-label">06/09</text>
    <rect x="610" y="58.95168402499334" width="49" height="21.04831597500666" rx="3" fill="#58a6ff"/>
    <text x="634.5" y="95" text-anchor="middle" class="model-label">06/10</text>
    <rect x="665" y="43.73868293504157" width="49" height="36.26131706495843" rx="3" fill="#58a6ff"/>
    <text x="689.5" y="95" text-anchor="middle" class="model-label">06/11</text>
    <rect x="720" y="5" width="49" height="75" rx="3" fill="#58a6ff"/>
    <text x="744.5" y="95" text-anchor="middle" class="model-label">06/12</text>
    <rect x="775" y="33.322591399810634" width="49" height="46.677408600189366" rx="3" fill="#58a6ff"/>
    <text x="799.5" y="95" text-anchor="middle" class="model-label">06/13</text>
  </g>
  <!-- Model Breakdown -->
  <g transform="translate(25, 245)">
    <text class="section-title">🤖 Model Usage</text>
    <g transform="translate(0, 18)">
      <rect x="0" y="2" width="670" height="10" rx="3" fill="#21262d"/>
      <rect x="0" y="2" width="261.3" height="10" rx="3" fill="#58a6ff"/>
      <text x="680" y="11" class="model-label">opus-4.6 39% ($3520.77)</text>
    </g>
    <g transform="translate(0, 38)">
      <rect x="0" y="2" width="670" height="10" rx="3" fill="#21262d"/>
      <rect x="0" y="2" width="80.39999999999999" height="10" rx="3" fill="#58a6ff"/>
      <text x="680" y="11" class="model-label">sonnet-4.6 12% ($1052.35)</text>
    </g>
    <g transform="translate(0, 58)">
      <rect x="0" y="2" width="670" height="10" rx="3" fill="#21262d"/>
      <rect x="0" y="2" width="80.39999999999999" height="10" rx="3" fill="#58a6ff"/>
      <text x="680" y="11" class="model-label">gpt-5.5 12% ($1033.04)</text>
    </g>
    <g transform="translate(0, 78)">
      <rect x="0" y="2" width="670" height="10" rx="3" fill="#21262d"/>
      <rect x="0" y="2" width="73.7" height="10" rx="3" fill="#58a6ff"/>
      <text x="680" y="11" class="model-label">4-8 11% ($1025.90)</text>
    </g>
    <g transform="translate(0, 98)">
      <rect x="0" y="2" width="670" height="10" rx="3" fill="#21262d"/>
      <rect x="0" y="2" width="60.3" height="10" rx="3" fill="#58a6ff"/>
      <text x="680" y="11" class="model-label">fable-5 9% ($846.34)</text>
    </g>
  </g>
  <text x="25" y="390" class="footer">Updated: 2026-06-13 15:00 UTC • Powered by <a href="https://aliencoder.tistory.com/" target="_blank">VibeDashboard</a></text>
</svg>