<svg xmlns="http://www.w3.org/2000/svg" width="900" height="410" viewBox="0 0 900 410">
  <style>
    .title { font: 600 20px 'Segoe UI', Ubuntu, Sans-Serif; fill: #c9d1d9; }
    .stat-label { font: 400 13px 'Segoe UI', Ubuntu, Sans-Serif; fill: #8b949e; }
    .stat-value { font: 600 18px 'Segoe UI', Ubuntu, Sans-Serif; fill: #c9d1d9; }
    .stat-value-small { font: 600 14px 'Segoe UI', Ubuntu, Sans-Serif; fill: #c9d1d9; }
    .section-title { font: 600 14px 'Segoe UI', Ubuntu, Sans-Serif; fill: #8b949e; }
    .model-label { font: 400 12px 'Segoe UI', Ubuntu, Sans-Serif; fill: #8b949e; }
    .footer { font: 400 11px 'Segoe UI', Ubuntu, Sans-Serif; fill: #8b949e; }
  </style>

  <!-- Background -->
  <rect x="0.5" y="0.5" width="899" height="409" rx="4.5" fill="#0d1117" stroke="#30363d"/>

  <!-- Title -->
  <text x="25" y="35" class="title">⚡ VibeDashboard</text>

  <!-- Stats Row -->
  <g transform="translate(25, 60)">
    <g>
      <text class="stat-label">Total Tokens</text>
      <text y="22" class="stat-value">21.3B</text>
    </g>
    <g transform="translate(150, 0)">
      <text class="stat-label">Total Cost</text>
      <text y="22" class="stat-value">$14378.01</text>
    </g>
    <g transform="translate(320, 0)">
      <text class="stat-label">📅 Today</text>
      <text y="22" class="stat-value-small">26.2M / $21.14</text>
    </g>
    <g transform="translate(510, 0)">
      <text class="stat-label">📊 This Week</text>
      <text y="22" class="stat-value-small">2.4B / $1637.29</text>
    </g>
    <g transform="translate(710, 0)">
      <text class="stat-label">📈 This Month</text>
      <text y="22" class="stat-value-small">12.4B / $8886.85</text>
    </g>
  </g>
  <!-- Weekly Usage Chart -->
  <g transform="translate(25, 105)">
    <rect x="0" y="0" width="850" height="100" rx="4" fill="#161b22"/>
    <text x="45" y="15" text-anchor="end" class="model-label">2.5B</text>
    <text x="45" y="52.5" text-anchor="end" class="model-label">1.2B</text>
    <text x="45" y="90" text-anchor="end" class="model-label">0</text>
    <line x1="50" y1="5" x2="50" y2="80" stroke="#30363d" stroke-width="1"/>
    <rect x="60" y="69.75157008259632" width="49" height="10.24842991740369" rx="3" fill="#58a6ff"/>
    <text x="84.5" y="95" text-anchor="middle" class="model-label">07/02</text>
    <rect x="115" y="5" width="49" height="75" rx="3" fill="#58a6ff"/>
    <text x="139.5" y="95" text-anchor="middle" class="model-label">07/03</text>
    <rect x="170" y="28.215610830591906" width="49" height="51.784389169408094" rx="3" fill="#58a6ff"/>
    <text x="194.5" y="95" text-anchor="middle" class="model-label">07/04</text>
    <rect x="225" y="73.40596925765384" width="49" height="6.594030742346168" rx="3" fill="#58a6ff"/>
    <text x="249.5" y="95" text-anchor="middle" class="model-label">07/05</text>
    <rect x="280" y="72.13046948697703" width="49" height="7.869530513022972" rx="3" fill="#58a6ff"/>
    <text x="304.5" y="95" text-anchor="middle" class="model-label">07/06</text>
    <rect x="335" y="70.79084523942096" width="49" height="9.209154760579043" rx="3" fill="#58a6ff"/>
    <text x="359.5" y="95" text-anchor="middle" class="model-label">07/07</text>
    <rect x="390" y="69.53054160769013" width="49" height="10.46945839230987" rx="3" fill="#58a6ff"/>
    <text x="414.5" y="95" text-anchor="middle" class="model-label">07/08</text>
    <rect x="445" y="69.48259680760331" width="49" height="10.517403192396687" rx="3" fill="#58a6ff"/>
    <text x="469.5" y="95" text-anchor="middle" class="model-label">07/09</text>
    <rect x="500" y="67.65569419830041" width="49" height="12.3443058016996" rx="3" fill="#58a6ff"/>
    <text x="524.5" y="95" text-anchor="middle" class="model-label">07/10</text>
    <rect x="555" y="75.94134121175016" width="49" height="4.0586587882498435" rx="3" fill="#58a6ff"/>
    <text x="579.5" y="95" text-anchor="middle" class="model-label">07/11</text>
    <rect x="610" y="68.42703170821187" width="49" height="11.572968291788126" rx="3" fill="#58a6ff"/>
    <text x="634.5" y="95" text-anchor="middle" class="model-label">07/12</text>
    <rect x="665" y="59.62532036335313" width="49" height="20.374679636646867" rx="3" fill="#58a6ff"/>
    <text x="689.5" y="95" text-anchor="middle" class="model-label">07/13</text>
    <rect x="720" y="77.30014072006152" width="49" height="2.699859279938481" rx="3" fill="#58a6ff"/>
    <text x="744.5" y="95" text-anchor="middle" class="model-label">07/14</text>
    <rect x="775" y="78" width="49" height="2" rx="3" fill="#58a6ff"/>
    <text x="799.5" y="95" text-anchor="middle" class="model-label">07/15</text>
  </g>
  <!-- Model Breakdown -->
  <g transform="translate(25, 245)">
    <text class="section-title">🤖 Model Usage</text>
    <g transform="translate(0, 18)">
      <rect x="0" y="2" width="670" height="10" rx="3" fill="#21262d"/>
      <rect x="0" y="2" width="328.3" height="10" rx="3" fill="#58a6ff"/>
      <text x="680" y="11" class="model-label">4-8 49% ($7013.99)</text>
    </g>
    <g transform="translate(0, 38)">
      <rect x="0" y="2" width="670" height="10" rx="3" fill="#21262d"/>
      <rect x="0" y="2" width="113.9" height="10" rx="3" fill="#58a6ff"/>
      <text x="680" y="11" class="model-label">opus-4.6 17% ($2393.90)</text>
    </g>
    <g transform="translate(0, 58)">
      <rect x="0" y="2" width="670" height="10" rx="3" fill="#21262d"/>
      <rect x="0" y="2" width="107.2" height="10" rx="3" fill="#58a6ff"/>
      <text x="680" y="11" class="model-label">fable-5 16% ($2292.92)</text>
    </g>
    <g transform="translate(0, 78)">
      <rect x="0" y="2" width="670" height="10" rx="3" fill="#21262d"/>
      <rect x="0" y="2" width="46.900000000000006" height="10" rx="3" fill="#58a6ff"/>
      <text x="680" y="11" class="model-label">sonnet-4.6 7% ($963.52)</text>
    </g>
    <g transform="translate(0, 98)">
      <rect x="0" y="2" width="670" height="10" rx="3" fill="#21262d"/>
      <rect x="0" y="2" width="26.8" height="10" rx="3" fill="#58a6ff"/>
      <text x="680" y="11" class="model-label">4-7 4% ($626.69)</text>
    </g>
  </g>
  <text x="25" y="390" class="footer">Updated: 2026-07-15 09:00 UTC • Powered by <a href="https://aliencoder.tistory.com/" target="_blank">VibeDashboard</a></text>
</svg>