<svg xmlns="http://www.w3.org/2000/svg" width="900" height="410" viewBox="0 0 900 410">
  <style>
    .title { font: 600 20px 'Segoe UI', Ubuntu, Sans-Serif; fill: #c9d1d9; }
    .stat-label { font: 400 13px 'Segoe UI', Ubuntu, Sans-Serif; fill: #8b949e; }
    .stat-value { font: 600 18px 'Segoe UI', Ubuntu, Sans-Serif; fill: #c9d1d9; }
    .stat-value-small { font: 600 14px 'Segoe UI', Ubuntu, Sans-Serif; fill: #c9d1d9; }
    .section-title { font: 600 14px 'Segoe UI', Ubuntu, Sans-Serif; fill: #8b949e; }
    .model-label { font: 400 12px 'Segoe UI', Ubuntu, Sans-Serif; fill: #8b949e; }
    .footer { font: 400 11px 'Segoe UI', Ubuntu, Sans-Serif; fill: #8b949e; }
  </style>

  <!-- Background -->
  <rect x="0.5" y="0.5" width="899" height="409" rx="4.5" fill="#0d1117" stroke="#30363d"/>

  <!-- Title -->
  <text x="25" y="35" class="title">⚡ VibeDashboard</text>

  <!-- Stats Row -->
  <g transform="translate(25, 60)">
    <g>
      <text class="stat-label">Total Tokens</text>
      <text y="22" class="stat-value">25.3B</text>
    </g>
    <g transform="translate(150, 0)">
      <text class="stat-label">Total Cost</text>
      <text y="22" class="stat-value">$15500.34</text>
    </g>
    <g transform="translate(320, 0)">
      <text class="stat-label">📅 Today</text>
      <text y="22" class="stat-value-small">2.6B / $806.52</text>
    </g>
    <g transform="translate(510, 0)">
      <text class="stat-label">📊 This Week</text>
      <text y="22" class="stat-value-small">6.1B / $2526.37</text>
    </g>
    <g transform="translate(710, 0)">
      <text class="stat-label">📈 This Month</text>
      <text y="22" class="stat-value-small">15.9B / $9700.00</text>
    </g>
  </g>
  <!-- Weekly Usage Chart -->
  <g transform="translate(25, 105)">
    <rect x="0" y="0" width="850" height="100" rx="4" fill="#161b22"/>
    <text x="45" y="15" text-anchor="end" class="model-label">2.6B</text>
    <text x="45" y="52.5" text-anchor="end" class="model-label">1.3B</text>
    <text x="45" y="90" text-anchor="end" class="model-label">0</text>
    <line x1="50" y1="5" x2="50" y2="80" stroke="#30363d" stroke-width="1"/>
    <rect x="60" y="70.35950070331305" width="49" height="9.640499296686954" rx="3" fill="#58a6ff"/>
    <text x="84.5" y="95" text-anchor="middle" class="model-label">07/02</text>
    <rect x="115" y="9.448954319951682" width="49" height="70.55104568004832" rx="3" fill="#58a6ff"/>
    <text x="139.5" y="95" text-anchor="middle" class="model-label">07/03</text>
    <rect x="170" y="31.287429255942534" width="49" height="48.712570744057466" rx="3" fill="#58a6ff"/>
    <text x="194.5" y="95" text-anchor="middle" class="model-label">07/04</text>
    <rect x="225" y="73.79712314508123" width="49" height="6.202876854918766" rx="3" fill="#58a6ff"/>
    <text x="249.5" y="95" text-anchor="middle" class="model-label">07/05</text>
    <rect x="280" y="72.59728524393576" width="49" height="7.4027147560642375" rx="3" fill="#58a6ff"/>
    <text x="304.5" y="95" text-anchor="middle" class="model-label">07/06</text>
    <rect x="335" y="71.33712669082338" width="49" height="8.662873309176621" rx="3" fill="#58a6ff"/>
    <text x="359.5" y="95" text-anchor="middle" class="model-label">07/07</text>
    <rect x="390" y="70.15158350291708" width="49" height="9.848416497082919" rx="3" fill="#58a6ff"/>
    <text x="414.5" y="95" text-anchor="middle" class="model-label">07/08</text>
    <rect x="445" y="70.10648275916981" width="49" height="9.893517240830196" rx="3" fill="#58a6ff"/>
    <text x="469.5" y="95" text-anchor="middle" class="model-label">07/09</text>
    <rect x="500" y="68.38795089994409" width="49" height="11.612049100055922" rx="3" fill="#58a6ff"/>
    <text x="524.5" y="95" text-anchor="middle" class="model-label">07/10</text>
    <rect x="555" y="76.18209837907274" width="49" height="3.8179016209272567" rx="3" fill="#58a6ff"/>
    <text x="579.5" y="95" text-anchor="middle" class="model-label">07/11</text>
    <rect x="610" y="69.11353313856407" width="49" height="10.886466861435931" rx="3" fill="#58a6ff"/>
    <text x="634.5" y="95" text-anchor="middle" class="model-label">07/12</text>
    <rect x="665" y="61.456346372445" width="49" height="18.543653627555006" rx="3" fill="#58a6ff"/>
    <text x="689.5" y="95" text-anchor="middle" class="model-label">07/13</text>
    <rect x="720" y="35.33666325242894" width="49" height="44.66333674757106" rx="3" fill="#58a6ff"/>
    <text x="744.5" y="95" text-anchor="middle" class="model-label">07/15</text>
    <rect x="775" y="5" width="49" height="75" rx="3" fill="#58a6ff"/>
    <text x="799.5" y="95" text-anchor="middle" class="model-label">07/16</text>
  </g>
  <!-- Model Breakdown -->
  <g transform="translate(25, 245)">
    <text class="section-title">🤖 Model Usage</text>
    <g transform="translate(0, 18)">
      <rect x="0" y="2" width="670" height="10" rx="3" fill="#21262d"/>
      <rect x="0" y="2" width="321.59999999999997" height="10" rx="3" fill="#58a6ff"/>
      <text x="680" y="11" class="model-label">4-8 48% ($7503.76)</text>
    </g>
    <g transform="translate(0, 38)">
      <rect x="0" y="2" width="670" height="10" rx="3" fill="#21262d"/>
      <rect x="0" y="2" width="100.5" height="10" rx="3" fill="#58a6ff"/>
      <text x="680" y="11" class="model-label">opus-4.6 15% ($2339.12)</text>
    </g>
    <g transform="translate(0, 58)">
      <rect x="0" y="2" width="670" height="10" rx="3" fill="#21262d"/>
      <rect x="0" y="2" width="100.5" height="10" rx="3" fill="#58a6ff"/>
      <text x="680" y="11" class="model-label">fable-5 15% ($2270.58)</text>
    </g>
    <g transform="translate(0, 78)">
      <rect x="0" y="2" width="670" height="10" rx="3" fill="#21262d"/>
      <rect x="0" y="2" width="53.6" height="10" rx="3" fill="#58a6ff"/>
      <text x="680" y="11" class="model-label">sonnet-5 8% ($1179.31)</text>
    </g>
    <g transform="translate(0, 98)">
      <rect x="0" y="2" width="670" height="10" rx="3" fill="#21262d"/>
      <rect x="0" y="2" width="40.199999999999996" height="10" rx="3" fill="#58a6ff"/>
      <text x="680" y="11" class="model-label">sonnet-4.6 6% ($961.43)</text>
    </g>
  </g>
  <text x="25" y="390" class="footer">Updated: 2026-07-16 09:00 UTC • Powered by <a href="https://aliencoder.tistory.com/" target="_blank">VibeDashboard</a></text>
</svg>