<svg xmlns="http://www.w3.org/2000/svg" width="900" height="410" viewBox="0 0 900 410">
  <style>
    .title { font: 600 20px 'Segoe UI', Ubuntu, Sans-Serif; fill: #c9d1d9; }
    .stat-label { font: 400 13px 'Segoe UI', Ubuntu, Sans-Serif; fill: #8b949e; }
    .stat-value { font: 600 18px 'Segoe UI', Ubuntu, Sans-Serif; fill: #c9d1d9; }
    .stat-value-small { font: 600 14px 'Segoe UI', Ubuntu, Sans-Serif; fill: #c9d1d9; }
    .section-title { font: 600 14px 'Segoe UI', Ubuntu, Sans-Serif; fill: #8b949e; }
    .model-label { font: 400 12px 'Segoe UI', Ubuntu, Sans-Serif; fill: #8b949e; }
    .footer { font: 400 11px 'Segoe UI', Ubuntu, Sans-Serif; fill: #8b949e; }
  </style>

  <!-- Background -->
  <rect x="0.5" y="0.5" width="899" height="409" rx="4.5" fill="#0d1117" stroke="#30363d"/>

  <!-- Title -->
  <text x="25" y="35" class="title">⚡ VibeDashboard</text>

  <!-- Stats Row -->
  <g transform="translate(25, 60)">
    <g>
      <text class="stat-label">Total Tokens</text>
      <text y="22" class="stat-value">13.6B</text>
    </g>
    <g transform="translate(150, 0)">
      <text class="stat-label">Total Cost</text>
      <text y="22" class="stat-value">$8653.82</text>
    </g>
    <g transform="translate(320, 0)">
      <text class="stat-label">📅 Today</text>
      <text y="22" class="stat-value-small">39.2M / $27.21</text>
    </g>
    <g transform="translate(510, 0)">
      <text class="stat-label">📊 This Week</text>
      <text y="22" class="stat-value-small">2.7B / $1893.45</text>
    </g>
    <g transform="translate(710, 0)">
      <text class="stat-label">📈 This Month</text>
      <text y="22" class="stat-value-small">8.7B / $6277.40</text>
    </g>
  </g>
  <!-- Weekly Usage Chart -->
  <g transform="translate(25, 105)">
    <rect x="0" y="0" width="850" height="100" rx="4" fill="#161b22"/>
    <text x="45" y="15" text-anchor="end" class="model-label">737.9M</text>
    <text x="45" y="52.5" text-anchor="end" class="model-label">368.9M</text>
    <text x="45" y="90" text-anchor="end" class="model-label">0</text>
    <line x1="50" y1="5" x2="50" y2="80" stroke="#30363d" stroke-width="1"/>
    <rect x="60" y="5" width="49" height="75" rx="3" fill="#58a6ff"/>
    <text x="84.5" y="95" text-anchor="middle" class="model-label">06/13</text>
    <rect x="115" y="33.406694217395234" width="49" height="46.593305782604766" rx="3" fill="#58a6ff"/>
    <text x="139.5" y="95" text-anchor="middle" class="model-label">06/14</text>
    <rect x="170" y="20.34206406397255" width="49" height="59.65793593602745" rx="3" fill="#58a6ff"/>
    <text x="194.5" y="95" text-anchor="middle" class="model-label">06/15</text>
    <rect x="225" y="28.795602857922987" width="49" height="51.20439714207701" rx="3" fill="#58a6ff"/>
    <text x="249.5" y="95" text-anchor="middle" class="model-label">06/16</text>
    <rect x="280" y="57.23227081258799" width="49" height="22.76772918741201" rx="3" fill="#58a6ff"/>
    <text x="304.5" y="95" text-anchor="middle" class="model-label">06/17</text>
    <rect x="335" y="50.95958916107496" width="49" height="29.04041083892504" rx="3" fill="#58a6ff"/>
    <text x="359.5" y="95" text-anchor="middle" class="model-label">06/18</text>
    <rect x="390" y="42.18992826482804" width="49" height="37.81007173517196" rx="3" fill="#58a6ff"/>
    <text x="414.5" y="95" text-anchor="middle" class="model-label">06/19</text>
    <rect x="445" y="58.860100716760826" width="49" height="21.13989928323917" rx="3" fill="#58a6ff"/>
    <text x="469.5" y="95" text-anchor="middle" class="model-label">06/20</text>
    <rect x="500" y="48.16736928016741" width="49" height="31.832630719832597" rx="3" fill="#58a6ff"/>
    <text x="524.5" y="95" text-anchor="middle" class="model-label">06/21</text>
    <rect x="555" y="49.325044950289026" width="49" height="30.674955049710974" rx="3" fill="#58a6ff"/>
    <text x="579.5" y="95" text-anchor="middle" class="model-label">06/22</text>
    <rect x="610" y="38.01627463680355" width="49" height="41.98372536319645" rx="3" fill="#58a6ff"/>
    <text x="634.5" y="95" text-anchor="middle" class="model-label">06/23</text>
    <rect x="665" y="21.772576275005598" width="49" height="58.2274237249944" rx="3" fill="#58a6ff"/>
    <text x="689.5" y="95" text-anchor="middle" class="model-label">06/24</text>
    <rect x="720" y="29.97998247514169" width="49" height="50.02001752485831" rx="3" fill="#58a6ff"/>
    <text x="744.5" y="95" text-anchor="middle" class="model-label">06/25</text>
    <rect x="775" y="76.01247660341753" width="49" height="3.9875233965824757" rx="3" fill="#58a6ff"/>
    <text x="799.5" y="95" text-anchor="middle" class="model-label">06/26</text>
  </g>
  <!-- Model Breakdown -->
  <g transform="translate(25, 245)">
    <text class="section-title">🤖 Model Usage</text>
    <g transform="translate(0, 18)">
      <rect x="0" y="2" width="670" height="10" rx="3" fill="#21262d"/>
      <rect x="0" y="2" width="247.9" height="10" rx="3" fill="#58a6ff"/>
      <text x="680" y="11" class="model-label">4-8 37% ($3223.18)</text>
    </g>
    <g transform="translate(0, 38)">
      <rect x="0" y="2" width="670" height="10" rx="3" fill="#21262d"/>
      <rect x="0" y="2" width="174.20000000000002" height="10" rx="3" fill="#58a6ff"/>
      <text x="680" y="11" class="model-label">opus-4.6 26% ($2280.73)</text>
    </g>
    <g transform="translate(0, 58)">
      <rect x="0" y="2" width="670" height="10" rx="3" fill="#21262d"/>
      <rect x="0" y="2" width="80.39999999999999" height="10" rx="3" fill="#58a6ff"/>
      <text x="680" y="11" class="model-label">sonnet-4.6 12% ($1018.20)</text>
    </g>
    <g transform="translate(0, 78)">
      <rect x="0" y="2" width="670" height="10" rx="3" fill="#21262d"/>
      <rect x="0" y="2" width="67" height="10" rx="3" fill="#58a6ff"/>
      <text x="680" y="11" class="model-label">fable-5 10% ($846.34)</text>
    </g>
    <g transform="translate(0, 98)">
      <rect x="0" y="2" width="670" height="10" rx="3" fill="#21262d"/>
      <rect x="0" y="2" width="46.900000000000006" height="10" rx="3" fill="#58a6ff"/>
      <text x="680" y="11" class="model-label">4-7 7% ($647.42)</text>
    </g>
  </g>
  <text x="25" y="390" class="footer">Updated: 2026-06-26 07:29 UTC • Powered by <a href="https://aliencoder.tistory.com/" target="_blank">VibeDashboard</a></text>
</svg>